<svg width="22" height="19" viewBox="0 0 22 19" fill="none" xmlns="http://www.w3.org/2000/svg">
<path fill-rule="evenodd" clip-rule="evenodd" d="M21.25 9C21.2522 6.62986 19.6661 4.55217 17.3792 3.92953C15.0923 3.3069 12.6718 4.29375 11.4722 6.33787C10.2725 8.382 10.5912 10.9764 12.25 12.6694V18C12.2498 18.2601 12.3844 18.5017 12.6056 18.6384C12.8268 18.7752 13.103 18.7876 13.3356 18.6712L16 17.3381L18.6644 18.6712C18.897 18.7876 19.1732 18.7752 19.3944 18.6384C19.6156 18.5017 19.7502 18.2601 19.75 18V12.6694C20.7119 11.6903 21.2506 10.3725 21.25 9V9ZM16 5.25C18.0711 5.25 19.75 6.92893 19.75 9C19.75 11.0711 18.0711 12.75 16 12.75C13.9289 12.75 12.25 11.0711 12.25 9C12.25 6.92893 13.9289 5.25 16 5.25V5.25ZM16.3356 15.8288C16.1244 15.723 15.8756 15.723 15.6644 15.8288L13.75 16.7869V13.7428C15.1738 14.4191 16.8262 14.4191 18.25 13.7428V16.7869L16.3356 15.8288ZM10.75 15C10.75 15.4142 10.4142 15.75 10 15.75H1.75C0.921573 15.75 0.25 15.0784 0.25 14.25V2.25C0.25 1.42157 0.921573 0.75 1.75 0.75H18.25C19.0784 0.75 19.75 1.42157 19.75 2.25C19.75 2.66421 19.4142 3 19 3C18.5858 3 18.25 2.66421 18.25 2.25H1.75V14.25H10C10.4142 14.25 10.75 14.5858 10.75 15V15ZM9.25 9.75C9.25 10.1642 8.91421 10.5 8.5 10.5H4.75C4.33579 10.5 4 10.1642 4 9.75C4 9.33579 4.33579 9 4.75 9H8.5C8.91421 9 9.25 9.33579 9.25 9.75V9.75ZM9.25 6.75C9.25 7.16421 8.91421 7.5 8.5 7.5H4.75C4.33579 7.5 4 7.16421 4 6.75C4 6.33579 4.33579 6 4.75 6H8.5C8.91421 6 9.25 6.33579 9.25 6.75V6.75Z" fill="#0D141C"/>
</svg>
