<svg width="24" height="22" viewBox="0 0 24 22" fill="none" xmlns="http://www.w3.org/2000/svg">
<path fill-rule="evenodd" clip-rule="evenodd" d="M23.6025 6.33824L12.3525 0.338244C12.1322 0.220911 11.8679 0.220911 11.6475 0.338244L0.39751 6.33824C0.152997 6.46855 0.000244141 6.72305 0.000244141 7.00012C0.000244141 7.27719 0.152997 7.53169 0.39751 7.66199L3.00001 9.05043V13.5898C2.99923 13.9582 3.13481 14.3139 3.38063 14.5882C4.60876 15.9561 7.36032 18.2501 12 18.2501C13.5384 18.2628 15.0653 17.9842 16.5 17.4289V20.5001C16.5 20.9143 16.8358 21.2501 17.25 21.2501C17.6642 21.2501 18 20.9143 18 20.5001V16.7042C18.978 16.1396 19.8618 15.4257 20.6194 14.5882C20.8652 14.3139 21.0008 13.9582 21 13.5898V9.05043L23.6025 7.66199C23.847 7.53169 23.9998 7.27719 23.9998 7.00012C23.9998 6.72305 23.847 6.46855 23.6025 6.33824ZM12 16.7501C7.94345 16.7501 5.55751 14.7682 4.50001 13.5898V9.85012L11.6475 13.662C11.8679 13.7793 12.1322 13.7793 12.3525 13.662L16.5 11.4504V15.7948C15.3188 16.3461 13.83 16.7501 12 16.7501ZM19.5 13.5861C19.0504 14.0849 18.5474 14.5329 18 14.922V10.6498L19.5 9.85012V13.5861ZM17.625 9.15074L17.6044 9.13856L12.3544 6.33824C11.99 6.15211 11.5436 6.29244 11.3513 6.65361C11.1589 7.01478 11.2916 7.46348 11.6494 7.66199L16.0313 10.0001L12 12.1498L2.34376 7.00012L12 1.85043L21.6563 7.00012L17.625 9.15074Z" fill="#0D141C"/>
</svg>
